<?xml version="1.0" standalone="no"?><!DOCTYPE svg PUBLIC "-//W3C//DTD SVG 1.1//EN" "http://www.w3.org/Graphics/SVG/1.1/DTD/svg11.dtd"><svg class="icon" width="200px" height="200.00px" viewBox="0 0 1024 1024" version="1.1" xmlns="http://www.w3.org/2000/svg"><path fill="#333333" d="M440.32 440.32H204.8a51.2 51.2 0 0 0-51.2 51.2v40.96a51.2 51.2 0 0 0 51.2 51.2h235.52V819.2a51.2 51.2 0 0 0 51.2 51.2h40.96a51.2 51.2 0 0 0 51.2-51.2v-235.52H819.2a51.2 51.2 0 0 0 51.2-51.2v-40.96a51.2 51.2 0 0 0-51.2-51.2h-235.52V204.8a51.2 51.2 0 0 0-51.2-51.2h-40.96a51.2 51.2 0 0 0-51.2 51.2v235.52z"  /></svg>