<?xml version="1.0" encoding="UTF-8"?>
<svg width="12px" height="12px" viewBox="0 0 12 12" version="1.1" xmlns="http://www.w3.org/2000/svg" xmlns:xlink="http://www.w3.org/1999/xlink">
    <!-- Generator: Sketch 45.2 (43514) - http://www.bohemiancoding.com/sketch -->
    <title>admin_menu_ic</title>
    <desc>Created with Sketch.</desc>
    <defs></defs>
    <g id="znl_EPR-1440*900" stroke="none" stroke-width="1" fill="none" fill-rule="evenodd">
        <g id="权限设置---模块权限" transform="translate(-484.000000, -365.000000)">
            <g id="Group-3" transform="translate(410.000000, 100.000000)">
                <g id="Group-4" transform="translate(40.000000, 119.000000)">
                    <g id="2" transform="translate(0.000000, 134.000000)">
                        <g id="菜单ic" transform="translate(34.000000, 12.000000)">
                            <path d="M2,0.5 C1.17157288,0.5 0.5,1.17157288 0.5,2 L0.5,9.85474937 C0.5,10.6831765 1.17157288,11.3547494 2,11.3547494 L9.85474937,11.3547494 C10.6831765,11.3547494 11.3547494,10.6831765 11.3547494,9.85474937 L11.3547494,2 C11.3547494,1.17157288 10.6831765,0.5 9.85474937,0.5 L2,0.5 Z" id="Rectangle" stroke="#999999"></path>
                            <path d="M3,2 L9,2 L9,2 C9.55228475,2 10,2.44771525 10,3 L10,3 L10,3 C10,3.55228475 9.55228475,4 9,4 L3,4 L3,4 C2.44771525,4 2,3.55228475 2,3 L2,3 L2,3 C2,2.44771525 2.44771525,2 3,2 Z" id="Rectangle-2" fill="#999999"></path>
                            <path d="M3,5 L9,5 L9,5 C9.55228475,5 10,5.44771525 10,6 L10,6 L10,6 C10,6.55228475 9.55228475,7 9,7 L3,7 L3,7 C2.44771525,7 2,6.55228475 2,6 L2,6 L2,6 C2,5.44771525 2.44771525,5 3,5 Z" id="Rectangle-2-Copy" fill="#999999"></path>
                            <path d="M3,8 L9,8 L9,8 C9.55228475,8 10,8.44771525 10,9 L10,9 L10,9 C10,9.55228475 9.55228475,10 9,10 L3,10 L3,10 C2.44771525,10 2,9.55228475 2,9 L2,9 L2,9 C2,8.44771525 2.44771525,8 3,8 Z" id="Rectangle-2-Copy-2" fill="#999999"></path>
                        </g>
                    </g>
                </g>
            </g>
        </g>
    </g>
</svg>