<?xml version="1.0" encoding="UTF-8"?>
<svg width="12px" height="12px" viewBox="0 0 12 12" version="1.1" xmlns="http://www.w3.org/2000/svg" xmlns:xlink="http://www.w3.org/1999/xlink">
    <!-- Generator: Sketch 45.2 (43514) - http://www.bohemiancoding.com/sketch -->
    <title>admin_module_ic</title>
    <desc>Created with Sketch.</desc>
    <defs></defs>
    <g id="znl_EPR-1440*900" stroke="none" stroke-width="1" fill="none" fill-rule="evenodd">
        <g id="权限设置---模块权限" transform="translate(-494.000000, -293.000000)" fill-rule="nonzero" fill="#CCCCCC">
            <g id="Group-3" transform="translate(410.000000, 100.000000)">
                <g id="Group-4" transform="translate(40.000000, 119.000000)">
                    <g id="1---1" transform="translate(0.000000, 62.000000)">
                        <g id="模块-实心" transform="translate(44.000000, 12.000000)">
                            <path d="M4.30343131,5.61207117 L1.31744455,5.61207117 C0.597242046,5.61207117 0.00776309729,5.02786588 0.00776309729,4.31410654 L0.00776308526,1.35483338 C0.00776308526,0.641074032 0.597242046,0.0568687515 1.31744454,0.0568687515 L4.3034313,0.0568687515 C5.02363381,0.0568687515 5.61311275,0.641074044 5.61311275,1.35483338 L5.61311277,4.31410654 C5.61311277,5.02786588 5.02363382,5.61207117 4.30343131,5.61207117 Z" id="Shape"></path>
                            <path d="M4.30343131,11.9979278 L1.31744455,11.9979278 C0.597242046,11.9979278 0.00776309729,11.4137225 0.00776309729,10.6999632 L0.00776308526,7.74069006 C0.00776308526,7.02693072 0.597242046,6.44272544 1.31744454,6.44272544 L4.3034313,6.44272544 C5.02363381,6.44272544 5.61311275,7.02693073 5.61311275,7.74069006 L5.61311275,10.6999632 C5.61311277,11.4139919 5.02363382,11.9979278 4.30343131,11.9979278 Z" id="Shape"></path>
                            <path d="M10.6890457,11.9979278 L7.7030589,11.9979278 C6.98285639,11.9979278 6.39337744,11.4137225 6.39337744,10.6999632 L6.39337744,7.74069006 C6.39337744,7.02693072 6.9828564,6.44272544 7.7030589,6.44272544 L10.6890457,6.44272544 C11.4092482,6.44272544 11.9987271,7.02693073 11.9987271,7.74069006 L11.9987271,10.6999632 C11.9987271,11.4139919 11.4092482,11.9979278 10.6890457,11.9979278 Z" id="Shape"></path>
                            <path d="M8.36510165,5.35404043 L6.58987042,3.57960778 C6.17215297,3.1621259 6.17514249,2.48203446 6.59639301,2.06805403 L8.38684361,0.308704592 C8.80809412,-0.105275821 9.49432481,-0.10231305 9.91204227,0.315168823 L11.6872735,2.08960148 C12.1049909,2.50708335 12.1020014,3.1871748 11.6807509,3.60115522 L9.89030032,5.36050466 C9.4690498,5.77421574 8.78281911,5.77152231 8.36510165,5.35404043 Z" id="Shape"></path>
                        </g>
                    </g>
                </g>
            </g>
        </g>
    </g>
</svg>