<?xml version="1.0" encoding="UTF-8"?>
<svg width="12px" height="14px" viewBox="0 0 12 14" version="1.1" xmlns="http://www.w3.org/2000/svg" xmlns:xlink="http://www.w3.org/1999/xlink">
    <!-- Generator: Sketch 45.2 (43514) - http://www.bohemiancoding.com/sketch -->
    <title>admin_user_ic</title>
    <desc>Created with Sketch.</desc>
    <defs></defs>
    <g id="znl_ERP-2" stroke="none" stroke-width="1" fill="none" fill-rule="evenodd">
        <g id="权限设置---数据权限" transform="translate(-562.000000, -360.000000)" fill-rule="nonzero" fill="#999999">
            <g id="Repeat-Group" transform="translate(542.000000, 349.000000)">
                <g id="1">
                    <g>
                        <g id="用户-(1)" transform="translate(20.000000, 11.000000)">
                            <path d="M5.84466278,0.00645024722 C7.78051456,0.00645024722 9.34972618,1.55005788 9.34972618,3.45395998 C9.34972618,5.35822153 7.78051456,6.90191211 5.84466278,6.90191211 C3.90886631,6.90191211 2.33968234,5.35823535 2.33968234,3.45395998 C2.33968234,1.54961547 3.90940548,0.00645024722 5.84466278,0.00645024722 L5.84466278,0.00645024722 L5.84466278,0.00645024722 Z M5.84466278,0.00645024722 C7.78051456,0.00645024722 9.34972618,1.55005788 9.34972618,3.45395998 C9.34972618,5.35822153 7.78051456,6.90191211 5.84466278,6.90191211 C3.90886631,6.90191211 2.33968234,5.35823535 2.33968234,3.45395998 C2.33968234,1.54961547 3.90940548,0.00645024722 5.84466278,0.00645024722 L5.84466278,0.00645024722 L5.84466278,0.00645024722 Z M4.53038498,8.05140922 L7.45183796,8.05140922 C9.95247043,8.05140922 11.9793601,10.0447594 11.9793601,12.5046356 L11.9793601,12.7915329 C11.9793601,13.7609035 9.95202802,13.7977473 7.45183796,13.7977473 L4.53038498,13.7977473 C2.02968339,13.7977473 0.00286281903,13.7963233 0.00286281903,12.7915329 L0.00286281903,12.5046356 C0.00286280532,10.0447594 2.02966955,8.05140922 4.53038498,8.05140922 L4.53038498,8.05140922 L4.53038498,8.05140922 Z" id="Shape"></path>
                        </g>
                    </g>
                </g>
            </g>
        </g>
    </g>
</svg>