<?xml version="1.0" encoding="UTF-8"?>
<svg width="12px" height="12px" viewBox="0 0 12 12" version="1.1" xmlns="http://www.w3.org/2000/svg" xmlns:xlink="http://www.w3.org/1999/xlink">
    <!-- Generator: Sketch 45.2 (43514) - http://www.bohemiancoding.com/sketch -->
    <title>admin_page_ic</title>
    <desc>Created with Sketch.</desc>
    <defs></defs>
    <g id="znl_ERP-2" stroke="none" stroke-width="1" fill="none" fill-rule="evenodd">
        <g id="权限设置---模块权限" transform="translate(-574.000000, -345.000000)">
            <g id="1" transform="translate(540.000000, 333.000000)">
                <g id="页面ic" transform="translate(34.000000, 12.000000)">
                    <rect id="Rectangle" stroke="#999999" x="0.5" y="0.5" width="11" height="11" rx="2"></rect>
                    <path d="M2.69881303,2.07549775 L2.69881303,2.07549775 L2.69881303,2.07549775 C3.06276595,2.07549775 3.35780809,2.37053988 3.35780809,2.73449281 L3.35780809,9.32444338 L3.35780809,9.32444338 C3.35780809,9.6883963 3.06276595,9.98343844 2.69881303,9.98343844 L2.69881303,9.98343844 L2.69881303,9.98343844 C2.33486011,9.98343844 2.03981797,9.6883963 2.03981797,9.32444338 L2.03981797,2.73449281 L2.03981797,2.73449281 C2.03981797,2.37053988 2.33486011,2.07549775 2.69881303,2.07549775 Z" id="Rectangle-3" fill="#999999"></path>
                    <path d="M5.01680315,4.05248292 L8.94775866,4.05248292 L8.94775866,4.05248292 C9.50004341,4.05248292 9.94775866,4.50019817 9.94775866,5.05248292 L9.94775866,8.98343844 L9.94775866,8.98343844 C9.94775866,9.53572319 9.50004341,9.98343844 8.94775866,9.98343844 L5.01680315,9.98343844 L5.01680315,9.98343844 C4.4645184,9.98343844 4.01680315,9.53572319 4.01680315,8.98343844 L4.01680315,5.05248292 L4.01680315,5.05248292 C4.01680315,4.50019817 4.4645184,4.05248292 5.01680315,4.05248292 Z" id="Rectangle-4" fill="#999999"></path>
                    <path d="M4.6757982,2.07549775 L9.2887636,2.07549775 L9.2887636,2.07549775 C9.65271652,2.07549775 9.94775866,2.37053988 9.94775866,2.73449281 L9.94775866,2.73449281 L9.94775866,2.73449281 C9.94775866,3.09844573 9.65271652,3.39348786 9.2887636,3.39348786 L4.6757982,3.39348786 L4.6757982,3.39348786 C4.31184528,3.39348786 4.01680315,3.09844573 4.01680315,2.73449281 L4.01680315,2.73449281 L4.01680315,2.73449281 C4.01680315,2.37053988 4.31184528,2.07549775 4.6757982,2.07549775 Z" id="Rectangle-2" fill="#999999"></path>
                </g>
            </g>
        </g>
    </g>
</svg>