<?xml version="1.0" standalone="no"?><!DOCTYPE svg PUBLIC "-//W3C//DTD SVG 1.1//EN" "http://www.w3.org/Graphics/SVG/1.1/DTD/svg11.dtd"><svg class="icon" width="200px" height="200.00px" viewBox="0 0 1024 1024" version="1.1" xmlns="http://www.w3.org/2000/svg"><path fill="#333333" d="M266.0864 214.8864a384 384 0 1 1 78.3872 603.5456l-189.7472 50.8416 50.8416-189.7472a384.1536 384.1536 0 0 1 60.5184-464.64zM373.5552 517.12c-18.3296 0-33.1264 15.7184-33.1264 35.072 0 19.3536 14.848 35.072 33.1264 35.072h125.696v138.2912c0 19.3536 14.848 35.072 33.1776 35.072 18.2784 0 33.1264-15.7184 33.1264-35.072v-138.24h125.696c18.3296 0 33.1776-15.7696 33.1776-35.1232 0-19.3536-14.848-35.072-33.1776-35.072h-125.696V445.2352h125.696c18.3296 0 33.1776-15.6672 33.1776-35.072 0-19.3536-14.848-35.072-33.1776-35.072h-77.568l45.568-48.2304a36.5568 36.5568 0 0 0 0-49.6128 31.8976 31.8976 0 0 0-46.848 0l-79.9744 84.6336-80.0256-84.6336a31.8976 31.8976 0 0 0-46.8992 0 36.5568 36.5568 0 0 0 0 49.6128l45.6192 48.2304H373.5552c-18.3296 0-33.1264 15.7184-33.1264 35.072 0 19.4048 14.848 35.072 33.1264 35.072h125.696v71.936H373.5552z"  /></svg>