<?xml version="1.0" standalone="no"?><!DOCTYPE svg PUBLIC "-//W3C//DTD SVG 1.1//EN" "http://www.w3.org/Graphics/SVG/1.1/DTD/svg11.dtd"><svg class="icon" width="200px" height="200.00px" viewBox="0 0 1024 1024" version="1.1" xmlns="http://www.w3.org/2000/svg"><path fill="#333333" d="M804.9664 824.832H219.0848c-7.936 0-14.2848 8.6016-14.2848 19.3536v19.3024c0 10.752 6.3488 19.3536 14.336 19.3536h584.192c7.9872 0 14.336-8.6016 14.336-19.3536v-19.3024c0-10.752-6.3488-19.3536-12.6976-19.3536z m13.6704-64.6144v-44.3392c0-24.832-5.4784-30.1568-31.0784-30.1568h-91.5456c-7.168-0.768-14.6944-5.376-21.0432-10.5472a75.52 75.52 0 0 1-10.3424-9.6256 380.7744 380.7744 0 0 1-13.4656-15.8208c-54.5792-65.024-19.2512-110.08 19.456-171.52 7.3216-8.8576 14.592-17.7664 20.0704-28.416 16.4864-28.3648 25.6-60.2624 25.6-95.744C716.288 244.0704 624.896 153.6 509.7984 153.6 396.4928 153.6 303.2576 242.2784 303.2576 354.048c0 46.08 16.4352 88.6784 43.8784 122.368 43.8784 67.4304 115.1488 122.368 0 209.3056H237.4656c-20.0704 0-31.0784 10.6496-31.0784 30.1568v46.08c0 17.7664 12.8 14.2336 32.9216 14.2336h562.8928c18.2784-1.792 16.4352 3.584 16.4352-15.9744z"  /></svg>