<?xml version="1.0" standalone="no"?><!DOCTYPE svg PUBLIC "-//W3C//DTD SVG 1.1//EN" "http://www.w3.org/Graphics/SVG/1.1/DTD/svg11.dtd"><svg class="icon" width="200px" height="200.00px" viewBox="0 0 1024 1024" version="1.1" xmlns="http://www.w3.org/2000/svg"><path fill="#333333" d="M61.2352 678.4c-4.2496 13.312-0.6656 22.528 12.0832 26.9824l373.76 126.6176c1.536 0.4608 3.0208 0.8192 4.5056 1.024 0-17.5616 2.8672-21.2992 8.0896-37.0176l-370.9952-125.696c-12.8-4.4032-23.1936-5.2224-27.4432 8.0896z m517.7856 9.728l142.08-424.1408-243.6096-80.7936-40.5504 139.8272-39.9872-15.4624 39.936-138.1376L213.6576 102.4 51.2 607.3344l438.272 134.5024 7.8848-8.4992a130.4064 130.4064 0 0 1 63.8976-38.0416l17.7664-7.168z m-121.856-121.1904l-94.6688-24.8832-20.48 75.1616-101.7856-147.456 163.328-77.8752-20.48 75.1104 94.6688 24.832-20.5312 75.1104z m503.808-283.7504c-2.304-13.1072-11.9808-14.6944-25.2416-12.4416l-181.248 38.3488-7.5264 24.32-120.4736 359.5264c15.2576 2.7136 22.2208 4.864 35.4304 11.8784l120.6272-359.68 164.5056-40.3968c13.2608-2.304 16.1792-8.448 13.9264-21.504z m-361.5232 445.3888a101.3248 101.3248 0 0 0-101.632 100.9664c0 55.808 45.4656 100.9664 101.632 100.9664a101.2736 101.2736 0 0 0 101.632-100.9664 101.2736 101.2736 0 0 0-101.632-100.9664z"  /></svg>