<?xml version="1.0" standalone="no"?><!DOCTYPE svg PUBLIC "-//W3C//DTD SVG 1.1//EN" "http://www.w3.org/Graphics/SVG/1.1/DTD/svg11.dtd"><svg class="icon" width="200px" height="200.00px" viewBox="0 0 1024 1024" version="1.1" xmlns="http://www.w3.org/2000/svg"><path fill="#333333" d="M910.016 100.48h-237.76C648.384 42.24 585.856 0 511.872 0 438.016 0 375.488 42.24 351.488 100.48h-237.44c-62.592 0-113.792 45.248-113.792 100.48V904.96c0 55.36 51.2 100.608 113.728 100.608H910.08c62.528 0 113.728-45.248 113.728-100.608V200.96c0-55.232-51.2-100.48-113.728-100.48zM512 100.48c31.36 0 56.96 22.592 56.96 50.304 0 27.712-25.6 50.176-56.96 50.176-31.168 0-56.832-22.528-56.832-50.176-0.128-27.584 25.6-50.304 56.832-50.304z m113.6 703.872H227.584v-100.48h398.016v100.48z m170.688-201.088H227.584V502.656h568.704v100.608z m0-201.088H227.584v-100.48h568.704v100.48z"  /></svg>