<?xml version="1.0" standalone="no"?><!DOCTYPE svg PUBLIC "-//W3C//DTD SVG 1.1//EN" "http://www.w3.org/Graphics/SVG/1.1/DTD/svg11.dtd"><svg class="icon" width="200px" height="200.00px" viewBox="0 0 1024 1024" version="1.1" xmlns="http://www.w3.org/2000/svg"><path fill="#333333" d="M256 576h128V448H256v128z m0 192h128v-128H256v128z m192-192h128V448H448v128z m0 192h128v-128H448v128z m192-192h128V448h-128v128z m0 192h128v-128h-128v128z m256-384a64 64 0 0 0-64-64H192a64 64 0 0 0-64 64v448a64 64 0 0 0 64 64h640a64 64 0 0 0 64-64V384z m0 640H128a128 128 0 0 1-128-128V128a128 128 0 0 1 128-128h128v64a64 64 0 0 0 128 0V0h256v64a64 64 0 0 0 128 0V0h128a128 128 0 0 1 128 128v768a128 128 0 0 1-128 128z"  /></svg>