<?xml version="1.0" standalone="no"?><!DOCTYPE svg PUBLIC "-//W3C//DTD SVG 1.1//EN" "http://www.w3.org/Graphics/SVG/1.1/DTD/svg11.dtd"><svg class="icon" width="200px" height="200.00px" viewBox="0 0 1024 1024" version="1.1" xmlns="http://www.w3.org/2000/svg"><path fill="#333333" d="M816.2816 803.328H249.2416c-7.68 0-13.824 8.2944-13.824 18.688v18.7392c0 10.3936 6.144 18.688 13.824 18.688h565.504c7.68 0 13.824-8.2944 13.824-18.688v-18.7392c0-10.3936-6.144-18.688-12.288-18.688z m-385.8432-244.6336c9.4208 32.4096-0.6144 67.1744-57.2928 109.9776H267.008c-19.456 0-30.0544 10.24-30.0544 29.184v44.6464c0 17.152 12.3904 13.7216 31.8464 13.7216H813.568c17.7152-1.7408 15.9232 3.4304 15.9232-15.4624v-42.9056c0-24.064-5.3248-29.184-30.0544-29.184h-88.6272c-6.912-0.768-14.2336-5.2224-20.3776-10.24a73.1136 73.1136 0 0 1-10.0352-9.3184 368.5888 368.5888 0 0 1-13.056-15.3088c-23.3472-27.8016-29.696-51.8144-26.2656-75.1104H430.4384z m-68.2496-107.52A186.368 186.368 0 0 1 330.752 347.648C330.752 239.4624 420.9152 153.6 530.5856 153.6c111.4624 0 199.8848 87.552 199.8848 194.048 0 34.304-8.8064 65.1776-24.7296 92.672a99.4816 99.4816 0 0 1-6.6048 10.9056h-336.896z m-219.648 61.7472v-13.6704c0-5.4272 4.7616-14.9504 13.056-21.76l85.248-87.1936c7.0656-8.192 15.36-8.192 20.1216 0l10.5984 12.3392c7.168 8.192 7.168 17.7152 0 23.1936l-49.664 53.0944h652.032c9.472 0 15.4112 8.192 15.4112 17.7152v17.7152c0 10.9056-7.1168 17.7152-15.36 17.7152H157.9008v1.3824c-9.472 0-15.36-10.9568-15.36-20.48z"  /></svg>