<?xml version="1.0" standalone="no"?><!DOCTYPE svg PUBLIC "-//W3C//DTD SVG 1.1//EN" "http://www.w3.org/Graphics/SVG/1.1/DTD/svg11.dtd"><svg class="icon" width="200px" height="200.00px" viewBox="0 0 1024 1024" version="1.1" xmlns="http://www.w3.org/2000/svg"><path fill="#333333" d="M837.7856 675.2256V371.6608c0-86.016-65.7408-151.7568-151.7568-151.7568h-50.5856c-86.016 0-151.7568 65.792-151.7568 151.7568v303.5648c0 30.3616-20.2752 50.5856-50.5856 50.5856H382.464c-30.3104 0-50.5856-20.224-50.5856-50.5856V371.6608H433.152L281.2928 219.904 129.536 371.712h101.1712v303.5648c0 86.016 65.792 151.7568 151.7568 151.7568h50.6368c86.016 0 151.7568-65.792 151.7568-151.7568V371.6608c0-30.3104 20.224-50.5856 50.5856-50.5856h50.5856c30.3616 0 50.5856 20.2752 50.5856 50.5856v303.5648H635.392l151.7568 151.7568 151.7568-151.7568h-101.1712z"  /></svg>