<?xml version="1.0" standalone="no"?><!DOCTYPE svg PUBLIC "-//W3C//DTD SVG 1.1//EN" "http://www.w3.org/Graphics/SVG/1.1/DTD/svg11.dtd"><svg class="icon" width="200px" height="200.00px" viewBox="0 0 1024 1024" version="1.1" xmlns="http://www.w3.org/2000/svg"><path fill="#333333" d="M511.488 181.0944C195.584 181.0944 33.4848 499.5072 33.4848 499.5072s122.368 318.4128 478.1056 318.4128c322.0992 0 478.0544-317.184 478.0544-317.184s-157.184-319.6416-478.0544-319.6416z m0.768 517.4272c-115.5072 0-199.0144-87.0912-199.0144-199.0144 0-111.9744 83.456-199.0144 199.0144-199.0144 115.5072 0 198.9632 87.04 198.9632 199.0144 0 111.9232-83.456 199.0144-198.9632 199.0144z m0-318.464c-66.048 0.1536-119.3984 55.4496-119.3984 119.4496 0 63.8976 53.3504 119.3984 119.3984 119.3984 66.048 0 119.3984-55.5008 119.3984-119.3984 0-64-53.4016-119.552-119.3984-119.4496z"  /></svg>