<?xml version="1.0" standalone="no"?><!DOCTYPE svg PUBLIC "-//W3C//DTD SVG 1.1//EN" "http://www.w3.org/Graphics/SVG/1.1/DTD/svg11.dtd"><svg class="icon" width="200px" height="200.00px" viewBox="0 0 1024 1024" version="1.1" xmlns="http://www.w3.org/2000/svg"><path fill="#333333" d="M794.112 429.4656c58.368 36.1472 58.368 66.7136 58.368 66.7136v22.272l-13.9264 322.5088c-2.7648 22.2208-22.2208 41.728-44.4928 41.728H235.2128c-24.9856 0-44.4416-19.456-44.4416-41.728L174.08 515.6864c0-50.0736 25.0368-61.184 25.0368-61.184s286.3616-175.1552 294.7072-180.736c13.8752-11.1104 30.5664-8.3456 47.2576 2.7648 61.1328 38.912 211.3024 127.8976 252.9792 152.9344z m125.0816-61.184c16.6912 13.9264 22.2208 38.912 8.3456 61.184a39.6288 39.6288 0 0 1-33.3824 16.6912c-5.5296 0-13.8752-2.7648-22.2208-8.3456l-353.1264-241.8688-350.3104 230.7584c-19.456 13.8752-44.4928 8.3456-58.368-11.1104-13.9264-19.456-8.3456-44.544 11.1104-58.368l372.5824-247.5008c13.8752-11.1104 33.3312-8.3456 47.2576 0l378.112 258.56z m-590.592 400.896L418.304 680.96a9.472 9.472 0 0 0 0-13.4656l-89.7024-88.2688c-5.12-5.12-9.3696-3.3792-9.3696 3.7888v61.952a5.0176 5.0176 0 0 1-5.0176 4.9152H246.3232a6.4512 6.4512 0 0 0-6.4512 6.4v35.9424c0 3.4816 2.8672 6.3488 6.4512 6.4h67.8912c2.7648 0 5.0176 2.2016 5.0176 4.9152v61.952c0 7.168 4.2496 8.8576 9.3696 3.7888z m366.592 0c5.12 5.12 9.3696 3.3792 9.3696-3.7888V703.488c0-2.7136 2.2528-4.9152 5.0176-4.9152h67.8912c3.584 0 6.5024-2.9184 6.5024-6.4v-35.9424a6.4512 6.4512 0 0 0-6.5024-6.4H709.632a5.0176 5.0176 0 0 1-5.0176-4.9664v-61.9008c0-7.168-4.1984-8.8576-9.3696-3.7888l-89.7024 88.2688a9.472 9.472 0 0 0 0 13.4656l89.7024 88.32z m-228.5568-237.568v268.032h90.7264v-268.0832H466.6368z"  /></svg>