<?xml version="1.0" standalone="no"?><!DOCTYPE svg PUBLIC "-//W3C//DTD SVG 1.1//EN" "http://www.w3.org/Graphics/SVG/1.1/DTD/svg11.dtd"><svg class="icon" width="200px" height="200.00px" viewBox="0 0 1024 1024" version="1.1" xmlns="http://www.w3.org/2000/svg"><path fill="#333333" d="M246.272 817.152c0 45.568 37.3248 82.944 82.944 82.944h331.776c45.568 0 82.944-37.376 82.944-82.944V319.488H246.272v497.664zM785.408 195.072v82.944H204.8V195.072h145.152l41.472-41.472h207.36l41.472 41.472h145.152zM338.7904 376.4224h44.6464v466.7392h-44.6464V376.4224z m267.9296 0h44.6976v466.7392h-44.6976V376.4224z"  /><path fill="#333333" d="M246.272 817.152c0 45.568 37.3248 82.944 82.944 82.944h331.776c45.568 0 82.944-37.376 82.944-82.944V319.488H246.272v497.664zM785.408 195.072v82.944H204.8V195.072h145.152l41.472-41.472h207.36l41.472 41.472h145.152zM338.7904 376.4224h44.6464v466.7392h-44.6464V376.4224z m267.9296 0h44.6976v466.7392h-44.6976V376.4224z"  /></svg>