<?xml version="1.0" standalone="no"?><!DOCTYPE svg PUBLIC "-//W3C//DTD SVG 1.1//EN" "http://www.w3.org/Graphics/SVG/1.1/DTD/svg11.dtd"><svg class="icon" width="200px" height="200.00px" viewBox="0 0 1024 1024" version="1.1" xmlns="http://www.w3.org/2000/svg"><path fill="#333333" d="M756.1216 212.1728c-97.5872-0.3072-176.7936-18.688-235.8784-73.6256-10.1376-8.6528-24.064-28.7232-53.0432-0.1024C409.1904 188.5184 328.704 212.48 230.912 212.2752c-37.5296-0.1024-75.008-0.0512-75.008 49.1008v344.064c0 148.8896 241.664 297.4208 337.6128 297.4208 95.9488 0 337.6128-182.784 337.6128-297.472V261.3248c0-49.1008-40.0384-48.9984-75.0592-49.1008z m-140.288 332.9024c12.6464 0 22.9376 9.984 22.9376 22.3232s-10.24 22.3232-22.8864 22.3232h-99.1744v96.6656a22.5792 22.5792 0 0 1-23.1936 22.272 22.5792 22.5792 0 0 1-22.5792-22.272v-96.7168H371.8144a22.5792 22.5792 0 0 1-22.8864-22.3232c0-12.288 10.24-22.3232 22.8864-22.3232h99.072V485.5808h-99.328a22.5792 22.5792 0 0 1-22.5792-22.3232c0-12.3904 10.24-22.3744 22.8864-22.3744h81.2032l-86.016-83.7632c-5.2736-5.2224-2.1504-16.5376 6.912-25.4976 9.1648-8.96 20.8384-11.9808 26.112-6.7584l93.696 91.3408 93.696-91.3408c5.376-5.12 17.0496-2.048 26.112 6.7584 9.1136 8.9088 12.1344 20.2752 6.8096 25.4464l-85.8112 83.968h81.2544c12.6464 0 22.8864 9.984 22.8864 22.3232s-10.24 22.3232-22.8864 22.3232h-99.072v59.4944l99.072-0.1024z"  /></svg>