<?xml version="1.0" standalone="no"?><!DOCTYPE svg PUBLIC "-//W3C//DTD SVG 1.1//EN" "http://www.w3.org/Graphics/SVG/1.1/DTD/svg11.dtd"><svg class="icon" width="200px" height="200.00px" viewBox="0 0 1024 1024" version="1.1" xmlns="http://www.w3.org/2000/svg"><path fill="#333333" d="M760.1152 739.5328a50.5856 50.5856 0 0 1-50.5344 50.5856H305.152a50.5344 50.5344 0 0 1-50.5344-50.5856V334.848c0-27.9552 22.6304-50.5856 50.5344-50.5856h151.6544V183.1424H254.6688C198.8608 183.1424 153.6 228.4544 153.6 284.3136v505.8048c0 55.808 45.2608 101.12 101.0688 101.12h505.4464c55.808 0 101.0688-45.2608 101.0688-101.12V486.6048h-101.0688v252.928zM520.704 618.496l357.376-357.632L770.8672 153.6l-357.376 357.632 107.2128 107.3152z m-161.792 54.4768h109.6704L358.912 563.712v109.312z"  /></svg>