<?xml version="1.0" standalone="no"?><!DOCTYPE svg PUBLIC "-//W3C//DTD SVG 1.1//EN" "http://www.w3.org/Graphics/SVG/1.1/DTD/svg11.dtd"><svg class="icon" width="200px" height="200.00px" viewBox="0 0 1024 1024" version="1.1" xmlns="http://www.w3.org/2000/svg"><path fill="#333333" d="M439.808 327.8848c9.216 0 18.3808-4.608 23.8592-11.9296l22.016-24.7296v250.4192c0 22.016 15.616 40.3456 33.9456 40.3456 19.2512 0 34.816-18.3296 34.816-40.3456V291.2256l21.1456 24.7296a32.256 32.256 0 0 0 24.7808 11.9296c19.2512 0 33.9456-18.3296 33.9456-40.3456a43.008 43.008 0 0 0-10.0864-28.4672l-79.872-93.5424A32.256 32.256 0 0 0 519.68 153.6c-9.216 0-18.3296 4.608-24.7808 11.9296L415.0272 259.072a43.008 43.008 0 0 0-10.0864 28.4672c0.9216 22.016 15.616 40.3456 34.8672 40.3456z m444.928 252.3136l-91.7504-279.808c-4.608-15.616-17.408-26.624-32.1024-26.624h-92.672c0.9728 4.608 0.9728 9.216 0.9728 13.7728 0 27.4944-11.9296 52.2752-31.232 66.9696h99.072l65.1776 199.9872h-110.08c-19.3024 0-33.9456 18.3296-33.9456 40.3456v40.3968H382.9248v-40.3968c0-22.016-15.5648-40.3456-34.816-40.3456H237.056l65.1776-199.9872h99.072a85.0944 85.0944 0 0 1-31.232-66.9696c0-4.608 0.9216-9.216 0.9216-13.7728H279.296c-14.6944 0-27.5456 11.008-32.1024 26.624l-91.7504 279.808C153.6 584.8064 153.6 589.312 153.6 594.8416v253.184c0 22.016 15.616 40.3968 33.9456 40.3968h665.088c19.2512 0 33.9456-18.3808 33.9456-40.3968v-253.184a26.112 26.112 0 0 0-1.8432-14.6432z"  /></svg>