<?xml version="1.0" standalone="no"?><!DOCTYPE svg PUBLIC "-//W3C//DTD SVG 1.1//EN" "http://www.w3.org/Graphics/SVG/1.1/DTD/svg11.dtd"><svg class="icon" width="200px" height="199.80px" viewBox="0 0 1025 1024" version="1.1" xmlns="http://www.w3.org/2000/svg"><path fill="#333333" d="M1025.526401 986.017187a37.950814 37.950814 0 0 1-37.950814 37.950814H39.509214a37.950814 37.950814 0 1 1 0-75.83763h948.066373c20.991344 0 37.950814 16.95947 37.950814 37.886816z m-183.35427-587.821631l80.381488-80.381488a75.83763 75.83763 0 0 0 0-107.324646L734.847485 22.783288a75.83763 75.83763 0 0 0-107.324646 0L547.077353 102.588794l295.03078 295.67076z m-335.285523-255.35202L136.018198 513.647949a211.065404 211.065404 0 0 0-53.694322 129.467954v143.35552c0 41.91869 33.91894 75.901628 75.83763 75.901628h143.35552a211.065404 211.065404 0 0 0 129.531952-53.694322l370.932409-370.932409-295.030781-295.03078z"  /></svg>