<?xml version="1.0" standalone="no"?><!DOCTYPE svg PUBLIC "-//W3C//DTD SVG 1.1//EN" "http://www.w3.org/Graphics/SVG/1.1/DTD/svg11.dtd"><svg class="icon" width="200px" height="200.00px" viewBox="0 0 1024 1024" version="1.1" xmlns="http://www.w3.org/2000/svg"><path fill="#333333" d="M794.112 429.4656c58.368 36.1472 58.368 66.7136 58.368 66.7136v22.272l-13.9264 322.5088c-2.7648 22.2208-22.2208 41.728-44.4928 41.728H235.2128c-24.9856 0-44.4416-19.456-44.4416-41.728L174.08 515.6864c0-50.0736 25.0368-61.184 25.0368-61.184s286.3616-175.1552 294.7072-180.736c13.8752-11.1104 30.5664-8.3456 47.2576 2.7648 61.1328 38.912 211.3024 127.8976 252.9792 152.9344z m125.0816-61.184c16.6912 13.9264 22.2208 38.912 8.3456 61.184a39.6288 39.6288 0 0 1-33.3824 16.6912c-5.5296 0-13.8752-2.7648-22.2208-8.3456l-353.1264-241.8688-350.3104 230.7584c-19.456 13.8752-44.4928 8.3456-58.368-11.1104-13.9264-19.456-8.3456-44.544 11.1104-58.368l372.5824-247.5008c13.8752-11.1104 33.3312-8.3456 47.2576 0l378.112 258.56zM476.672 638.2592H472.576c-25.7536 0-51.5584-0.0512-77.312 0.0512a16.5888 16.5888 0 0 0-6.8096 1.792c-3.7376 1.7408-5.376 6.6048-3.84 11.776a30.1056 30.1056 0 0 0 4.0448 8.8064c35.6352 49.8176 71.424 99.4816 107.1104 149.2992 7.424 10.3424 20.1216 12.544 28.9792 3.7376 4.608-4.608 8.704-10.3424 12.8-15.9744l87.04-121.8048c3.8912-5.5296 7.8848-10.9568 11.776-16.5376 3.84-5.5296 4.7104-11.1104 2.4064-16.0256-2.2528-4.608-6.0928-5.0176-9.5232-5.0176-26.112-0.2048-52.1728-0.1024-78.2336-0.1024h-3.7376v-5.7856-120.32c-0.0512-3.84-0.1536-7.7824-0.7168-11.52-4.3008-28.16-22.6304-44.0832-41.2672-38.8608-18.0224 5.12-28.2112 24.2688-28.4672 48.384-0.3584 40.8064-0.1024 81.664-0.1024 122.5216v5.5808z"  /></svg>