<?xml version="1.0" standalone="no"?><!DOCTYPE svg PUBLIC "-//W3C//DTD SVG 1.1//EN" "http://www.w3.org/Graphics/SVG/1.1/DTD/svg11.dtd"><svg class="icon" width="200px" height="200.00px" viewBox="0 0 1024 1024" version="1.1" xmlns="http://www.w3.org/2000/svg"><path fill="#333333" d="M291.4304 695.7056v205.1584c0 11.4176 8.8064 20.736 19.5584 20.736h402.0224c10.752 0 19.5584-9.3184 19.5584-20.736v-205.1584c0-4.5056-3.4816-8.192-7.68-8.192H299.1104c-4.1984 0-7.68 3.6864-7.68 8.192zM725.9136 102.4H298.0864c-3.584 0-6.656 3.072-6.656 7.0656v453.9904c0 3.84 2.9696 7.0656 6.656 7.0656h427.8272c3.584 0 6.656-3.072 6.656-7.0656V109.4656c0-3.9424-2.9696-7.0656-6.656-7.0656z m-103.6288 305.8176c0 8.8064-6.7072 16.0256-15.104 16.0256H416.8192c-8.2944 0-15.104-7.168-15.104-16.0256v-26.624c0-8.704 6.7072-15.9744 15.104-15.9744h190.464c8.2944 0 15.104 7.168 15.104 16.0256v26.624h-0.1024z m0-116.992c0 8.704-6.7072 15.9744-15.104 15.9744H416.8192c-8.2944 0-15.104-7.168-15.104-16.0256v-26.624c0-8.704 6.7072-15.9744 15.104-15.9744h190.464c8.2944 0 15.104 7.168 15.104 16.0256v26.624h-0.1024z"  /><path fill="#333333" d="M874.7008 417.4848h-99.4816v178.5344c0 5.8368-5.12 10.4448-11.3152 10.4448H259.9936c-6.2976 0-11.3152-4.7104-11.3152-10.4448V417.4848h-106.496c-21.9648 0-39.7824 16.4352-39.7824 36.7104v304.64c0 20.2752 17.8176 36.7104 39.7824 36.7104h106.496v-122.0096c0-7.168 6.2976-13.056 14.1824-13.056h498.2784c7.7824 0 14.1824 5.8368 14.1824 13.056v121.9584h106.496c21.9648 0 39.7824-16.4864 39.7824-36.7104V454.144c0-20.224-17.8176-36.6592-39.7824-36.6592h-7.1168z"  /></svg>