<?xml version="1.0" standalone="no"?><!DOCTYPE svg PUBLIC "-//W3C//DTD SVG 1.1//EN" "http://www.w3.org/Graphics/SVG/1.1/DTD/svg11.dtd"><svg class="icon" width="200px" height="200.00px" viewBox="0 0 1024 1024" version="1.1" xmlns="http://www.w3.org/2000/svg"><path fill="#333333" d="M458.752 840.96a359.5264 359.5264 0 1 1 55.296 0v77.0048a27.648 27.648 0 1 1-55.296 0v-77.0048z m175.9232-300.2368h-117.3504V473.6h117.3504c17.0496 0 30.9248-14.6432 30.9248-32.768 0-18.0736-13.824-32.7168-30.9248-32.7168h-72.3968l42.496-45.056a34.0992 34.0992 0 0 0 0-46.2848 29.7472 29.7472 0 0 0-43.7248 0L486.4 395.776 411.7504 316.7744a29.7472 29.7472 0 0 0-43.776 0 34.0992 34.0992 0 0 0 0 46.336l42.5472 45.056H338.1248c-17.0496 0-30.9248 14.592-30.9248 32.7168 0 18.0736 13.824 32.7168 30.9248 32.7168h117.3504v67.072H338.1248c-17.0496 0-30.9248 14.6944-30.9248 32.768 0 18.1248 13.824 32.768 30.9248 32.768h117.3504v129.024c0 18.1248 13.824 32.768 30.9248 32.768 17.1008 0 30.9248-14.6432 30.9248-32.768v-129.024h117.3504c17.0496 0 30.9248-14.6432 30.9248-32.768 0-18.0736-13.824-32.768-30.9248-32.768z"  /></svg>