<?xml version="1.0" standalone="no"?><!DOCTYPE svg PUBLIC "-//W3C//DTD SVG 1.1//EN" "http://www.w3.org/Graphics/SVG/1.1/DTD/svg11.dtd"><svg class="icon" width="200px" height="200.00px" viewBox="0 0 1024 1024" version="1.1" xmlns="http://www.w3.org/2000/svg"><path fill="#333333" d="M794.112 429.4656c58.368 36.1472 58.368 66.7136 58.368 66.7136v22.272l-13.9264 322.5088c-2.7648 22.2208-22.2208 41.728-44.4928 41.728H235.2128c-24.9856 0-44.4416-19.456-44.4416-41.728L174.08 515.6864c0-50.0736 25.0368-61.184 25.0368-61.184s286.3616-175.1552 294.7072-180.736c13.8752-11.1104 30.5664-8.3456 47.2576 2.7648 61.1328 38.912 211.3024 127.8976 252.9792 152.9344z m125.0816-61.184c16.6912 13.9264 22.2208 38.912 8.3456 61.184a39.6288 39.6288 0 0 1-33.3824 16.6912c-5.5296 0-13.8752-2.7648-22.2208-8.3456l-353.1264-241.8688-350.3104 230.7584c-19.456 13.8752-44.4928 8.3456-58.368-11.1104-13.9264-19.456-8.3456-44.544 11.1104-58.368l372.5824-247.5008c13.8752-11.1104 33.3312-8.3456 47.2576 0l378.112 258.56z m-500.5824 249.088a14.1312 14.1312 0 0 0 12.8-7.1168l65.5872-103.2192c8.0384-12.4416 17.6128-12.4416 25.6 0l28.8256 44.544-20.7872 15.9744 73.6256 37.376-8.0384-90.7776-20.7872 16.0256-25.6-44.4928C540.16 469.7088 525.824 460.8 511.4368 460.8c-14.4384 0-28.8256 8.9088-38.4 24.8832l-65.6384 103.2192c-4.8128 8.9088-3.1744 19.5584 3.2256 24.8832 1.536 1.792 4.7616 3.584 7.9872 3.584zM348.16 797.0816H473.088c9.5744 0 15.9744-7.168 15.9744-17.8176 0-10.6496-6.4-17.7664-15.9744-17.7664H348.16c-6.4 0-9.5744-1.792-9.5744-1.792s0-3.584 3.1744-10.7008l28.8256-44.4416 20.7872 15.9744 8.0384-90.7264-73.6256 37.376 20.7872 16.0256-28.7744 44.4416c-11.264 16.0256-12.8 33.792-6.4 48.0768 4.7616 12.4416 19.2 21.3504 36.7616 21.3504z m329.728-48.0768l4.7616 10.7008s-3.1744 1.792-9.5744 1.792h-91.2384v-28.4672l-70.4 46.2336 70.4 46.2848v-28.4672h91.2384c17.5616 0 32-7.168 38.4-21.3504 6.4-14.2336 4.8128-30.2592-6.4-48.0768l-65.6384-103.168c-4.8128-8.9088-14.3872-10.7008-22.3744-3.584-8.0384 5.376-9.6256 16.0256-3.2256 24.9344l64 103.168z"  /></svg>