<?xml version="1.0" standalone="no"?><!DOCTYPE svg PUBLIC "-//W3C//DTD SVG 1.1//EN" "http://www.w3.org/Graphics/SVG/1.1/DTD/svg11.dtd"><svg class="icon" width="200px" height="200.00px" viewBox="0 0 1024 1024" version="1.1" xmlns="http://www.w3.org/2000/svg"><path fill="#333333" d="M640.256 153.6a230.656 230.656 0 0 0-230.6048 230.6048c0 45.8752 13.824 88.3712 36.864 124.2624L167.936 786.944a49.152 49.152 0 1 0 69.5808 69.5296l89.2928-89.2416 45.8752 45.9264a21.2992 21.2992 0 1 0 30.1056-30.1568l-45.9264-45.9264 72.3456-72.3456 45.9264 45.9264a21.3504 21.3504 0 0 0 30.1568-30.1568l-45.9264-45.9264 56.576-56.576a229.376 229.376 0 0 0 124.2624 36.864 230.656 230.656 0 0 0 0-461.2608z m0 307.5072a76.9024 76.9024 0 1 1 0.1024-153.8048 76.9024 76.9024 0 0 1-0.1024 153.8048z"  /></svg>