<?xml version="1.0" standalone="no"?><!DOCTYPE svg PUBLIC "-//W3C//DTD SVG 1.1//EN" "http://www.w3.org/Graphics/SVG/1.1/DTD/svg11.dtd"><svg class="icon" width="200px" height="200.00px" viewBox="0 0 1024 1024" version="1.1" xmlns="http://www.w3.org/2000/svg"><path fill="#333333" d="M317.2864 234.5472h350.464a20.8896 20.8896 0 0 0 20.8384-20.8384V123.4944a20.8896 20.8896 0 0 0-20.8384-20.8384H317.2864a20.8896 20.8896 0 0 0-20.8384 20.8384v90.2144c0 11.4688 9.3696 20.8384 20.8384 20.8384z"  /><path fill="#333333" d="M768.9216 166.5536h-59.4944v47.1552a41.728 41.728 0 0 1-41.6768 41.6768H317.2864a41.6768 41.6768 0 0 1-41.6768-41.6768v-47.1552H216.1152c-34.3552 0-62.464 28.1088-62.464 62.464v623.4112c0 34.3552 28.1088 62.464 62.464 62.464h552.8064c34.3552 0 62.464-28.1088 62.464-62.464V229.0176c0-34.3552-28.1088-62.464-62.464-62.464zM732.3648 727.04c0 15.872-12.9536 28.8256-28.8256 28.8256H282.3168a28.928 28.928 0 0 1-28.8256-28.8256v-4.8128c0-15.872 12.9536-28.8256 28.8256-28.8256h421.2224c15.872 0 28.8256 12.9536 28.8256 28.8256v4.8128z m0-170.3936c0 15.872-12.9536 28.8256-28.8256 28.8256H282.3168a28.928 28.928 0 0 1-28.8256-28.8256v-4.8128c0-15.872 12.9536-28.8256 28.8256-28.8256h421.2224c15.872 0 28.8256 13.0048 28.8256 28.8256v4.8128z m-204.9536-170.3936c0 15.872-7.424 28.8256-16.4864 28.8256H269.9776c-9.0624 0-16.4864-12.9536-16.4864-28.8256v-4.8128c0-15.872 7.424-28.8256 16.4864-28.8256h240.9472c9.0624 0 16.4864 13.0048 16.4864 28.8256v4.8128z"  /></svg>