<?xml version="1.0" standalone="no"?><!DOCTYPE svg PUBLIC "-//W3C//DTD SVG 1.1//EN" "http://www.w3.org/Graphics/SVG/1.1/DTD/svg11.dtd"><svg class="icon" width="200px" height="200.00px" viewBox="0 0 1024 1024" version="1.1" xmlns="http://www.w3.org/2000/svg"><path fill="#333333" d="M716.3904 144.0768H225.8432c-45.4144 0-81.7664 36.7616-81.7664 81.7664v572.3136c0 45.0048 36.352 81.7664 81.7664 81.7664h572.3136c45.0048 0 81.7664-36.7616 81.7664-81.7664V307.6096l-163.5328-163.5328zM512 798.1568a122.4704 122.4704 0 0 1-122.624-122.624A122.4704 122.4704 0 0 1 512 552.8576a122.4704 122.4704 0 0 1 122.624 122.6752A122.4704 122.4704 0 0 1 512 798.1568zM225.792 225.8432h408.832v163.5328H225.8432V225.792z"  /></svg>