<?xml version="1.0" standalone="no"?><!DOCTYPE svg PUBLIC "-//W3C//DTD SVG 1.1//EN" "http://www.w3.org/Graphics/SVG/1.1/DTD/svg11.dtd"><svg class="icon" width="200px" height="200.00px" viewBox="0 0 1024 1024" version="1.1" xmlns="http://www.w3.org/2000/svg"><path fill="#333333" d="M794.112 429.4656c58.368 36.1472 58.368 66.7136 58.368 66.7136v22.272l-13.9264 322.5088c-2.7648 22.2208-22.2208 41.728-44.4928 41.728H235.2128c-24.9856 0-44.4416-19.456-44.4416-41.728L174.08 515.6864c0-50.0736 25.0368-61.184 25.0368-61.184s286.3616-175.1552 294.7072-180.736c13.8752-11.1104 30.5664-8.3456 47.2576 2.7648 61.1328 38.912 211.3024 127.8976 252.9792 152.9344z m125.0816-61.184c16.6912 13.9264 22.2208 38.912 8.3456 61.184a39.6288 39.6288 0 0 1-33.3824 16.6912c-5.5296 0-13.8752-2.7648-22.2208-8.3456l-353.1264-241.8688-350.3104 230.7584c-19.456 13.8752-44.4928 8.3456-58.368-11.1104-13.9264-19.456-8.3456-44.544 11.1104-58.368l372.5824-247.5008c13.8752-11.1104 33.3312-8.3456 47.2576 0l378.112 258.56zM512 819.2a204.8 204.8 0 1 0 0-409.6 204.8 204.8 0 0 0 0 409.6z m0-371.2A166.6048 166.6048 0 0 1 678.4 614.4 166.6048 166.6048 0 0 1 512 780.8 166.6048 166.6048 0 0 1 345.6 614.4 166.6048 166.6048 0 0 1 512 448z m-5.632 237.568l102.4-102.4a18.944 18.944 0 0 0 5.4784-14.336 18.9952 18.9952 0 0 0-5.4784-12.8 18.9952 18.9952 0 0 0-12.8-5.4784 18.944 18.944 0 0 0-14.336 5.4784l-88.832 88.832-50.432-50.432a18.944 18.944 0 0 0-14.336-5.4784 18.9952 18.9952 0 0 0-12.8 5.4784 18.9952 18.9952 0 0 0-5.4784 12.8 18.944 18.944 0 0 0 5.4784 14.336l64 64a19.1488 19.1488 0 0 0 27.136 0z"  /></svg>