<?xml version="1.0" standalone="no"?><!DOCTYPE svg PUBLIC "-//W3C//DTD SVG 1.1//EN" "http://www.w3.org/Graphics/SVG/1.1/DTD/svg11.dtd"><svg class="icon" width="200px" height="200.00px" viewBox="0 0 1024 1024" version="1.1" xmlns="http://www.w3.org/2000/svg"><path fill="#333333" d="M962.7648 679.2704c4.2496 13.312 0.6656 22.528-12.0832 26.9824l-373.76 126.6176a26.88 26.88 0 0 1-4.5056 1.024c0-17.5616-2.8672-21.2992-8.0896-37.0176l370.9952-125.696c12.8-4.4032 23.1936-5.2224 27.4432 8.0896z m-517.7856 9.728L302.8992 264.8576l243.6096-80.7936 40.5504 139.8272 39.9872-15.4624-39.936-138.1376 223.2832-67.0208L972.8 608.2048l-438.272 134.5024-7.8848-8.4992a130.4064 130.4064 0 0 0-63.8976-38.0416l-17.7664-7.168z m121.856-121.1904l94.6688-24.8832 20.48 75.1616 101.7856-147.456-163.328-77.8752 20.48 75.1104-94.6688 24.832 20.5312 75.1104zM62.976 284.0576c2.304-13.1072 11.9808-14.6944 25.2416-12.4416l181.248 38.3488 7.5264 24.32 120.4736 359.5264a100.352 100.352 0 0 0-35.4304 11.8784L241.4592 346.0096 76.9536 305.664c-13.2608-2.304-16.1792-8.448-13.9264-21.504z m361.5232 445.3888c56.1152 0 101.632 45.2096 101.632 100.9664 0 55.808-45.4656 100.9664-101.632 100.9664a101.2736 101.2736 0 0 1-101.632-100.9664c0-55.808 45.4656-100.9664 101.632-100.9664z"  /></svg>