<?xml version="1.0" standalone="no"?><!DOCTYPE svg PUBLIC "-//W3C//DTD SVG 1.1//EN" "http://www.w3.org/Graphics/SVG/1.1/DTD/svg11.dtd"><svg class="icon" width="200px" height="200.00px" viewBox="0 0 1024 1024" version="1.1" xmlns="http://www.w3.org/2000/svg"><path fill="#333333" d="M855.7568 617.8816H413.0304v-91.2384c0-4.096-1.536-7.68-4.5056-10.6496a14.5408 14.5408 0 0 0-10.6496-4.5056 14.7456 14.7456 0 0 0-10.9056 4.2496l-151.6544 152.0128a14.848 14.848 0 0 0-4.2496 10.9056c0 4.096 1.4336 7.6288 4.2496 10.4448l151.1936 152.0128a17.7664 17.7664 0 0 0 11.3664 4.7616c4.096 0 7.68-1.536 10.6496-4.5056a14.6432 14.6432 0 0 0 4.5056-10.752v-91.136h442.7264c4.096 0 7.68-1.536 10.6496-4.5568a14.6432 14.6432 0 0 0 4.5056-10.6496v-91.1872c0-4.096-1.536-7.68-4.5056-10.752a14.5408 14.5408 0 0 0-10.6496-4.4544zM246.2208 434.0736h442.7264v91.2384c0 4.096 1.4848 7.68 4.4544 10.7008a14.5408 14.5408 0 0 0 10.7008 4.5056 14.7456 14.7456 0 0 0 10.9056-4.3008l151.6544-151.9616a14.848 14.848 0 0 0 4.2496-10.9568 14.2336 14.2336 0 0 0-4.2496-10.4448L715.4688 210.944a17.7664 17.7664 0 0 0-11.3664-4.7616c-4.096 0-7.68 1.536-10.7008 4.5056a14.6432 14.6432 0 0 0-4.4544 10.7008v91.136H246.2208c-4.096 0.0512-7.68 1.536-10.6496 4.608a14.6432 14.6432 0 0 0-4.5056 10.6496v91.1872c0 4.096 1.536 7.68 4.5056 10.7008a14.5408 14.5408 0 0 0 10.6496 4.5056z"  /></svg>