<?xml version="1.0" standalone="no"?><!DOCTYPE svg PUBLIC "-//W3C//DTD SVG 1.1//EN" "http://www.w3.org/Graphics/SVG/1.1/DTD/svg11.dtd"><svg class="icon" width="200px" height="200.00px" viewBox="0 0 1024 1024" version="1.1" xmlns="http://www.w3.org/2000/svg"><path fill="#333333" d="M919.893333 471.8592h-48.128c-25.6-178.517333-178.7904-315.938133-364.407466-315.938133-143.4624 0-267.4688 82.158933-328.362667 201.796266l98.816 38.024534a263.168 263.168 0 0 1 229.546667-134.485334 263.338667 263.338667 0 0 1 257.979733 210.602667h-63.453867c-8.157867 7.918933-15.940267 12.8-4.266666 26.5216l98.2016 99.874133c8.192 7.918933 21.367467 7.918933 29.457066 0l98.9184-99.874133c8.123733-7.918933 3.857067-18.602667-4.266666-26.5216zM507.392 787.797333a263.338667 263.338667 0 0 1-251.221333-184.32h57.617066c8.192-7.850667 12.424533-18.568533 4.3008-26.453333l-98.884266-99.908267a21.265067 21.265067 0 0 0-29.457067 0L91.477333 577.024c-11.6736 13.7216-3.857067 18.602667 4.266667 26.487467h48.264533c28.5696 156.194133 180.1216 289.621333 363.349334 289.621333 134.075733 0 251.0848-71.850667 315.5968-178.926933l-99.669334-39.3216a262.7584 262.7584 0 0 1-215.927466 112.913066z"  /></svg>