<?xml version="1.0" standalone="no"?><!DOCTYPE svg PUBLIC "-//W3C//DTD SVG 1.1//EN" "http://www.w3.org/Graphics/SVG/1.1/DTD/svg11.dtd"><svg class="icon" width="200px" height="200.00px" viewBox="0 0 1024 1024" version="1.1" xmlns="http://www.w3.org/2000/svg"><path fill="#333333" d="M805.239467 552.1408c1.6384-13.1072 2.8672-26.2144 2.8672-40.1408 0-13.9264-1.2288-27.0336-2.8672-40.1408l86.4256-67.584a20.650667 20.650667 0 0 0 4.9152-26.2144l-81.92-141.7216c-4.9152-9.0112-15.9744-12.288-24.9856-9.0112l-101.9904 40.96a299.246933 299.246933 0 0 0-69.2224-40.1408l-15.5648-108.544A19.968 19.968 0 0 0 582.826667 102.4h-163.84c-10.24 0-18.8416 7.3728-20.0704 17.2032l-15.5648 108.544A314.709333 314.709333 0 0 0 314.129067 268.288l-101.9904-40.96a19.968 19.968 0 0 0-24.9856 9.0112l-81.92 141.7216a20.206933 20.206933 0 0 0 4.9152 26.2144l86.4256 67.584c-1.6384 13.1072-2.8672 26.624-2.8672 40.1408 0 13.5168 1.2288 27.0336 2.8672 40.1408l-86.4256 67.584a20.650667 20.650667 0 0 0-4.9152 26.2144l81.92 141.7216c4.9152 9.0112 15.9744 12.288 24.9856 9.0112l101.9904-40.96c21.2992 16.384 44.2368 29.9008 69.2224 40.1408l15.5648 108.544a19.968 19.968 0 0 0 20.0704 17.2032h163.84c10.24 0 18.8416-7.3728 20.0704-17.2032l15.5648-108.544a314.709333 314.709333 0 0 0 69.2224-40.1408l101.9904 40.96c9.4208 3.6864 20.0704 0 24.9856-9.0112l81.92-141.7216a20.650667 20.650667 0 0 0-4.9152-26.2144l-86.4256-67.584zM500.906667 655.36a143.530667 143.530667 0 0 1-143.36-143.36c0-79.0528 64.3072-143.36 143.36-143.36 79.0528 0 143.36 64.3072 143.36 143.36 0 79.0528-64.3072 143.36-143.36 143.36z"  /></svg>