<?xml version="1.0" standalone="no"?><!DOCTYPE svg PUBLIC "-//W3C//DTD SVG 1.1//EN" "http://www.w3.org/Graphics/SVG/1.1/DTD/svg11.dtd"><svg class="icon" width="200px" height="200.00px" viewBox="0 0 1024 1024" version="1.1" xmlns="http://www.w3.org/2000/svg"><path fill="#333333" d="M899.584 355.1232l-246.6816-243.0976a33.4848 33.4848 0 0 0-51.6096 5.632c-29.184 44.9536-42.7008 103.0144-36.864 158.0544a33.7408 33.7408 0 0 1-9.472 27.4432L482.7648 375.296a33.1776 33.1776 0 0 1-33.7408 8.0896 288.6656 288.6656 0 0 0-263.68 42.496 32.8704 32.8704 0 0 0-3.4816 49.408l149.8624 152.576-165.8368 163.072a41.1648 41.1648 0 0 0-0.3072 58.368 41.728 41.728 0 0 0 58.6752 0.3072l165.376-162.6624 143.104 145.7152c13.9264 14.1824 37.376 13.2608 49.8176-2.4064a284.4672 284.4672 0 0 0 46.592-268.2368 32.5632 32.5632 0 0 1 8.0384-33.536l71.9872-71.8848a33.792 33.792 0 0 1 27.136-9.5232 249.2416 249.2416 0 0 0 158.208-40.704 33.1776 33.1776 0 0 0 5.0176-51.2z m-333.312 333.312l-2.304-0.2048a22.7328 22.7328 0 0 1-21.1968-20.8384 127.6928 127.6928 0 0 0-9.472-37.888 22.528 22.528 0 0 1 8.96-28.2624l1.9456-1.1776a22.6816 22.6816 0 0 1 32.512 10.6496c7.168 16.9984 11.6736 34.8672 13.312 53.248a22.528 22.528 0 0 1-23.7568 24.4736z"  /></svg>