<?xml version="1.0" standalone="no"?><!DOCTYPE svg PUBLIC "-//W3C//DTD SVG 1.1//EN" "http://www.w3.org/Graphics/SVG/1.1/DTD/svg11.dtd"><svg class="icon" width="200px" height="200.00px" viewBox="0 0 1024 1024" version="1.1" xmlns="http://www.w3.org/2000/svg"><path fill="#333333" d="M794.112 429.4656c58.368 36.1472 58.368 66.7136 58.368 66.7136v22.272l-13.9264 322.5088c-2.7648 22.2208-22.2208 41.728-44.4928 41.728H235.2128c-24.9856 0-44.4416-19.456-44.4416-41.728L174.08 515.6864c0-50.0736 25.0368-61.184 25.0368-61.184s286.3616-175.1552 294.7072-180.736c13.8752-11.1104 30.5664-8.3456 47.2576 2.7648 61.1328 38.912 211.3024 127.8976 252.9792 152.9344z m125.0816-61.184c16.6912 13.9264 22.2208 38.912 8.3456 61.184a39.6288 39.6288 0 0 1-33.3824 16.6912c-5.5296 0-13.8752-2.7648-22.2208-8.3456l-353.1264-241.8688-350.3104 230.7584c-19.456 13.8752-44.4928 8.3456-58.368-11.1104-13.9264-19.456-8.3456-44.544 11.1104-58.368l372.5824-247.5008c13.8752-11.1104 33.3312-8.3456 47.2576 0l378.112 258.56zM367.1552 634.9824v-1.28h301.568a16.384 16.384 0 0 0 16.896-16.896v-16.896a16.384 16.384 0 0 0-16.896-16.896h-231.424l54.6304-50.688c7.7824-5.2224 7.7824-14.336 0-22.1696l-11.6736-11.776c-5.1712-7.7824-14.2848-7.7824-22.0672 0L364.544 581.632c-9.1136 6.5024-14.336 15.616-14.336 20.7872v13.056c0 9.1648 6.5024 19.5584 16.896 19.5584z m302.8992 51.968v1.3312H367.1552a16.384 16.384 0 0 0-16.896 16.896v16.9472c0 9.1136 6.5024 16.896 16.896 16.896h231.3728l-54.6304 50.688c-7.7824 5.2224-7.7824 14.336 0 22.1184l13.056 11.7248c5.2224 7.7824 14.336 7.7824 22.1184 0l93.5936-83.2c9.0624-6.5024 14.2848-15.616 14.2848-20.7872v-13.056c0-9.1136-6.5024-19.5584-16.896-19.5584z"  /></svg>