<?xml version="1.0" standalone="no"?><!DOCTYPE svg PUBLIC "-//W3C//DTD SVG 1.1//EN" "http://www.w3.org/Graphics/SVG/1.1/DTD/svg11.dtd"><svg class="icon" width="200px" height="200.00px" viewBox="0 0 1024 1024" version="1.1" xmlns="http://www.w3.org/2000/svg"><path fill="#333333" d="M924.3648 303.616c11.8272 9.5744 22.272 19.3024 31.3344 29.184 9.0112 9.8816 13.5168 19.6096 13.5168 29.184 0 10.752-4.096 19.456-12.288 26.2144-8.192 6.8096-18.176 14.4384-30.0544 22.8864l-57.088 42.752c-20.0704 14.9504-39.1168 29.0304-57.1392 42.2912-18.0736 13.312-33.9968 24.832-47.8208 34.7136-13.824 9.8816-23.552 16.4864-29.184 19.8656-18.6368 11.264-33.024 15.36-43.2128 12.288-10.1376-3.072-16.64-9.1648-19.456-18.176V446.6176h-3.3792c-42.9056 0-80.384 4.6592-112.5888 13.9776a248.576 248.576 0 0 0-84.6336 42.2912c-24.2688 18.944-45.4144 42.3424-63.488 70.2976a564.5824 564.5824 0 0 0-49.0496 96.8704c-1.6896-1.1264-3.3792-4.1984-5.12-9.3184a145.0496 145.0496 0 0 1-2.9184-19.456 380.416 380.416 0 0 1-1.28-35.5328c0-47.4112 7.168-91.648 21.5552-132.864a325.888 325.888 0 0 1 61.7984-107.9296 285.4912 285.4912 0 0 1 97.3312-72.3968c38.0928-17.4592 80.8448-25.9072 128.256-25.344 2.816 0 5.2224 0.1024 7.168 0.4096 1.9968 0.256 4.4032 0.4096 7.168 0.4096L673.024 179.2c1.1264-15.7696 7.6288-27.1872 19.456-34.304 11.8784-7.0144 26.8288-4.096 44.8512 8.9088 5.632 4.5568 15.9744 12.6976 30.9248 24.576l50.3808 39.7824a5682.3808 5682.3808 0 0 1 105.7792 85.504z m-141.312 318.208c18.5856 0 31.744 5.2224 39.3216 15.6672 7.6288 10.4448 11.4176 25.5488 11.4176 45.2608v110.8992c0 28.16-8.192 51.6096-24.576 70.2464-16.3328 18.6368-38.0416 27.648-65.1264 27.0848l-506.9824-3.3792c-12.4416 0-24.576-2.56-36.4032-7.6288-11.8784-5.12-22.4256-12.288-31.744-21.6064-9.3184-9.2672-16.896-20.48-22.8352-33.4336a104.8576 104.8576 0 0 1-8.9088-44.032v-489.984c0-27.648 8.3456-50.7904 24.9856-69.4272 16.64-18.6368 39.936-27.648 69.7856-27.136l171.8272 1.7408c6.1952 0 12.6976 0.7168 19.456 2.0992a46.1312 46.1312 0 0 1 31.744 23.7056c3.6864 6.5024 5.5296 14.848 5.5296 24.9856a45.6192 45.6192 0 0 1-5.9392 24.064 50.1248 50.1248 0 0 1-15.6672 16.128 71.168 71.168 0 0 1-21.1456 9.3184 89.1392 89.1392 0 0 1-22.4256 2.9696L314.112 298.496c-22.016 0-39.2192 6.912-51.6096 20.736-12.4416 13.824-18.6368 30.9248-18.6368 51.2v335.2064c0 11.8272 2.0992 22.528 6.3488 32.1536 4.2496 9.5744 9.8816 17.6128 16.896 24.064 7.0656 6.5536 15.0016 11.6224 23.7056 15.2576 8.7552 3.6864 17.664 5.5296 26.6752 5.5296l345.344 3.3792c19.712 0.5632 35.3792-5.9392 46.9504-19.456 11.5712-13.568 17.408-30.72 17.408-51.6608v-36.352c0-17.5104 5.1712-31.3344 15.616-41.472 10.4448-10.1888 23.8592-15.2576 40.192-15.2576z"  /></svg>